<?xml version="1.0" standalone="no"?><!DOCTYPE svg PUBLIC "-//W3C//DTD SVG 1.1//EN" "http://www.w3.org/Graphics/SVG/1.1/DTD/svg11.dtd"><svg t="1775713507142" class="icon" viewBox="0 0 1117 1024" version="1.1" xmlns="http://www.w3.org/2000/svg" p-id="4821" xmlns:xlink="http://www.w3.org/1999/xlink" width="218.1640625" height="200"><path d="M968.67297 615.579152c-7.695515-2.885818-23.148606-5.771636-23.148606-5.771637 55.947636 0.961939 108.978424-31.588848 130.203151-87.195151 26.034424-68.949333-9.650424-146.556121-79.096242-172.435394a136.812606 136.812606 0 0 0-91.601455-0.930909l-0.961939-3.847758a164.460606 164.460606 0 0 0 54.954666-73.790061c32.79903-87.195152-11.574303-182.985697-99.296969-215.567515a168.432485 168.432485 0 0 0-216.994909 98.676364 169.921939 169.921939 0 0 0-2.885819 109.226667 131.568485 131.568485 0 0 0-77.141333-74.72097c-69.445818-25.879273-147.549091 9.588364-173.583515 78.568727a134.206061 134.206061 0 0 0 40.494545 150.403879s-13.498182-7.664485-21.224727-10.550303c-69.414788-25.848242-147.549091 9.619394-173.583515 78.568727-12.536242 33.543758-9.619394 66.094545 2.916849 96.783515 66.52897 167.656727 282.530909 234.713212 330.78303 247.187394 45.304242 22.031515 252.617697 112.081455 412.70303 28.734061 29.913212-15.32897 53.992727-38.322424 66.56-71.866182 26.034424-68.018424-8.688485-145.625212-79.096242-171.473454z" fill="#2B9E7D" p-id="4822"></path><path d="M1016.894061 620.357818a29.106424 29.106424 0 0 1-25.072485-14.36703 29.230545 29.230545 0 0 1 10.612363-39.284364c21.224727-12.443152 37.608727-30.657939 46.297213-53.651394 9.619394-26.841212 8.688485-54.613333-2.916849-80.492606a101.655273 101.655273 0 0 0-59.764364-54.613333 104.323879 104.323879 0 0 0-72.331636 0 26.872242 26.872242 0 0 1-24.110545-2.854788c-7.726545-4.809697-12.536242-11.481212-13.498182-20.138667l-0.96194-4.778666a27.865212 27.865212 0 0 1 10.612364-26.810182 135.13697 135.13697 0 0 0 45.304242-61.315879 139.108848 139.108848 0 0 0-81.95103-179.16897 140.31903 140.31903 0 0 0-130.203151 17.252849c-12.536242 9.557333-30.844121 5.740606-40.494546-6.733576-9.619394-12.443152-5.802667-30.657939 6.733576-40.215273a197.66303 197.66303 0 0 1 184.195879-23.955394 196.949333 196.949333 0 0 1 110.902303 102.493091 194.063515 194.063515 0 0 1 5.802666 150.434909c-3.878788 11.481212-9.650424 22.031515-15.453091 32.581819 12.536242 1.892848 24.110545 4.778667 36.646788 8.626424 84.867879 31.588848 128.279273 125.486545 96.442182 209.795879a159.992242 159.992242 0 0 1-71.369697 83.378424 28.454788 28.454788 0 0 1-15.42206 3.816727z m-189.005576 302.762667c-17.37697 0-34.722909-0.961939-52.068849-2.885818a29.758061 29.758061 0 0 1-26.065454-31.619879c1.954909-15.32897 16.41503-26.810182 31.837091-25.848243 72.331636 7.664485 135.012848-1.923879 186.119757-28.76509 26.065455-13.405091 43.411394-31.619879 53.061818-56.506182a103.951515 103.951515 0 0 0-3.878787-81.454546 28.64097 28.64097 0 0 1 13.498181-38.322424c14.460121-6.702545 31.837091-0.930909 38.570667 13.405091a156.268606 156.268606 0 0 1 4.840727 126.479515c-14.491152 38.322424-41.487515 68.018424-80.058181 87.195152-47.259152 25.848242-103.175758 38.322424-165.85697 38.322424z" fill="#444B54" p-id="4823"></path><path d="M762.321455 516.871758c-7.726545 0-23.148606 1.923879-23.148607 1.923878a133.740606 133.740606 0 0 0 90.639516-126.448484c0-73.790061-60.757333-134.144-134.981819-134.144-32.79903 0-62.681212 11.481212-86.822787 31.619878l-1.923879-3.847757c16.384-25.848242 26.065455-55.544242 26.065454-88.126061 0-92.935758-75.248485-167.656727-168.804848-167.656727-93.525333 0-168.742788 74.72097-168.742788 167.656727 0 39.284364 13.498182 74.72097 35.684848 103.45503-25.072485-25.848242-59.795394-43.101091-98.36606-43.10109-74.255515 0-134.981818 60.353939-134.981818 134.144 0 58.430061 38.539636 108.264727 90.608485 126.448484 0 0-15.422061-1.923879-23.117576-1.923878-74.255515 0-135.012848 60.38497-135.012849 134.144 0 35.436606 14.460121 65.163636 36.615758 90.049939 121.545697 134.144 347.198061 121.700848 397.34303 116.891151 50.14497 4.809697 275.797333 17.252848 397.312-116.891151 23.117576-24.886303 36.615758-54.613333 36.615758-90.049939 0-74.72097-60.726303-134.144-134.981818-134.144z" fill="#52DDB2" p-id="4824"></path><path d="M331.248485 884.798061h-2.885818c-85.829818-8.626424-204.458667-37.360485-283.523879-125.517576a28.547879 28.547879 0 0 1 1.923879-40.246303 28.982303 28.982303 0 0 1 40.525575 1.923879c66.52897 73.75903 170.666667 98.676364 245.884122 106.340848 15.422061 1.923879 26.996364 15.32897 26.065454 31.650909a27.523879 27.523879 0 0 1-27.989333 25.848243z" fill="#444B54" p-id="4825"></path><path d="M66.063515 768.868848a27.430788 27.430788 0 0 1-21.224727-9.588363c-29.882182-31.619879-44.373333-68.980364-44.373333-109.226667 0-69.942303 44.373333-129.334303 107.054545-152.327757a161.109333 161.109333 0 0 1-39.532606-106.340849c0-77.606788 55.916606-145.625212 133.08897-160.023273a29.292606 29.292606 0 0 1 33.729939 23.024485 29.137455 29.137455 0 0 1-23.148606 33.512728 105.006545 105.006545 0 0 0-85.798788 103.48606c0 44.993939 28.920242 85.271273 71.369697 99.607273a27.430788 27.430788 0 0 1 18.307879 33.543757c-3.878788 14.398061-17.37697 23.955394-31.837091 22.031516a163.312485 163.312485 0 0 0-19.269818-1.892849 105.44097 105.44097 0 0 0-106.092606 105.378909c0 26.841212 9.650424 49.834667 28.951272 70.904243 10.581333 11.481212 10.581333 29.696-1.954909 40.246303-4.809697 5.740606-11.574303 7.664485-19.269818 7.664484z m264.22303-439.761454a30.875152 30.875152 0 0 1-23.148606-10.550303 190.184727 190.184727 0 0 1-42.418424-120.707879c0-108.295758 88.715636-196.421818 197.66303-196.421818 108.978424 0 197.694061 88.126061 197.694061 196.421818a28.330667 28.330667 0 0 1-28.920242 28.734061 28.330667 28.330667 0 0 1-28.920243-28.734061c0-76.644848-62.681212-138.922667-139.822545-138.922667-77.172364 0-139.853576 62.277818-139.853576 138.922667 0 31.619879 10.612364 60.353939 29.913212 85.271273a28.672 28.672 0 0 1-4.840727 40.246303 27.027394 27.027394 0 0 1-17.34594 5.740606z m198.656 559.507394c-17.37697 0-35.684848-0.930909-54.954666-1.892849a28.361697 28.361697 0 0 1-26.996364-30.688969c0.930909-16.259879 14.460121-27.772121 30.844121-26.810182 57.840485 3.816727 255.534545 7.664485 360.665212-108.264727a28.982303 28.982303 0 0 1 40.494546-1.923879 28.547879 28.547879 0 0 1 1.923879 40.246303c-35.684848 41.208242-139.822545 129.334303-351.976728 129.334303z" fill="#444B54" p-id="4826"></path><path d="M860.687515 768.868848a28.765091 28.765091 0 0 1-19.300848-7.664484 28.547879 28.547879 0 0 1-1.923879-40.246303c19.269818-21.100606 28.920242-44.06303 28.920242-70.904243a105.44097 105.44097 0 0 0-106.061575-105.378909 145.842424 145.842424 0 0 0-19.300849 1.923879c-14.460121 1.892848-28.920242-7.664485-31.806061-22.031515a29.199515 29.199515 0 0 1 18.307879-33.543758 105.472 105.472 0 0 0 71.369697-99.638303 105.44097 105.44097 0 0 0-106.092606-105.409939c-29.882182 0-56.878545 11.481212-77.141333 33.543757a27.803152 27.803152 0 0 1-39.532606 1.923879c-11.574303-9.588364-13.498182-27.803152-3.847758-39.284364 19.269818-24.917333 29.882182-54.613333 29.882182-85.271272 0-76.644848-62.681212-138.922667-139.822545-138.922667a28.330667 28.330667 0 0 1-28.951273-28.734061c0-16.290909 12.536242-28.765091 28.951273-28.76509 108.947394 0 197.66303 88.157091 197.66303 196.421818 0 12.443152-0.930909 23.955394-2.885818 36.398545a158.813091 158.813091 0 0 1 36.646788-3.816727c90.670545 0 163.933091 72.797091 163.93309 162.878061 0 40.215273-14.460121 76.644848-39.532606 106.340848 62.681212 22.962424 107.054545 82.385455 107.054546 152.358788 0 41.177212-15.422061 77.575758-44.373333 109.195636a34.102303 34.102303 0 0 1-22.155637 8.626424z m-351.045818 241.415758a28.827152 28.827152 0 0 1-23.117576-11.481212c-4.840727-5.740606-113.819152-154.251636-53.061818-767.441455 1.923879-15.32897 15.453091-27.772121 31.837091-25.848242 15.422061 1.923879 27.958303 15.32897 26.034424 31.619879C434.424242 818.672485 531.828364 962.404848 532.790303 964.297697a28.672 28.672 0 0 1-4.809697 40.246303 34.226424 34.226424 0 0 1-18.307879 5.740606z" fill="#444B54" p-id="4827"></path><path d="M425.735758 549.453576a27.151515 27.151515 0 0 1-18.307879-6.702546l-94.487273-76.644848a27.741091 27.741091 0 0 1-3.878788-40.246303 28.144485 28.144485 0 0 1 40.525576-3.816727l94.487273 76.644848a27.741091 27.741091 0 0 1 3.847757 40.246303 30.440727 30.440727 0 0 1-22.155636 10.550303z m23.179636-112.081455a28.827152 28.827152 0 0 1-23.148606-11.481212c-9.650424-12.474182-6.764606-30.68897 5.771636-40.277333l60.757334-44.99394c12.536242-9.619394 30.844121-6.733576 40.494545 5.740606 9.650424 12.443152 6.764606 30.657939-5.771636 40.215273l-60.757334 45.056a31.247515 31.247515 0 0 1-17.376969 5.740606z m83.874909 236.637091a30.347636 30.347636 0 0 1-25.072485-13.405091 28.113455 28.113455 0 0 1 9.650424-39.284363l99.328-61.315879a28.485818 28.485818 0 0 1 39.532606 9.588363 28.113455 28.113455 0 0 1-9.619393 39.284364l-99.359031 61.315879c-3.847758 1.892848-9.619394 3.816727-14.460121 3.816727z" fill="#444B54" p-id="4828"></path><path d="M389.12 144.197818a27.430788 27.430788 0 0 1-21.224727-9.588363 28.547879 28.547879 0 0 1 1.923879-40.246303A140.31903 140.31903 0 0 1 463.375515 58.957576c16.384 0 28.920242 12.443152 28.920243 28.73406a28.330667 28.330667 0 0 1-28.920243 28.734061c-20.262788 0-39.563636 7.664485-54.985697 21.100606-5.771636 3.816727-12.536242 6.702545-19.269818 6.702545zM352.473212 225.590303c-1.923879 0-3.878788 0-5.802667-0.930909a13.777455 13.777455 0 0 1-5.771636-1.923879c-1.923879-0.961939-2.885818-1.923879-4.840727-2.885818-1.923879-0.930909-2.885818-1.923879-4.809697-3.847758a27.492848 27.492848 0 0 1-8.688485-20.107636c0-7.664485 2.916848-15.32897 8.688485-20.107636 10.612364-10.550303 29.882182-10.550303 40.494545 0 0.961939 0.930909 2.916848 2.854788 3.878788 4.778666 0.930909 1.923879 1.923879 2.885818 2.885818 4.778667 0.930909 1.923879 0.930909 3.847758 1.923879 5.771636 0 1.892848 0.961939 3.816727 0.96194 5.740606s0 3.816727-0.96194 5.740606a13.560242 13.560242 0 0 1-1.923879 5.740607 20.914424 20.914424 0 0 1-2.885818 4.809697 16.849455 16.849455 0 0 1-3.878788 4.778666l-3.847757 3.847758c-1.923879 0.930909-2.885818 1.892848-4.809697 2.854788-1.954909 0.961939-3.878788 0.961939-5.802667 1.923878-0.930909-0.930909-2.885818-0.930909-4.809697-0.930909z" fill="#FFFFFF" p-id="4829"></path><path d="M788.355879 1022.758788H267.605333a28.330667 28.330667 0 0 1-28.920242-28.734061c0-16.290909 12.536242-28.765091 28.920242-28.765091h520.750546c16.384 0 28.920242 12.474182 28.920242 28.765091a28.330667 28.330667 0 0 1-28.920242 28.734061zM932.988121 1022.758788c-1.923879 0-3.847758 0-5.771636-0.96194-1.923879 0-3.847758-0.930909-5.802667-1.923878-1.923879-0.930909-2.885818-1.923879-4.809697-2.854788a7.509333 7.509333 0 0 1-3.847757-3.847758l-3.878788-3.816727c-0.930909-1.923879-1.923879-2.885818-2.885818-4.809697-0.930909-1.923879-0.930909-3.816727-1.923879-5.740606 0-1.923879-0.961939-3.847758-0.96194-5.740606 0-1.923879 0-3.847758 0.96194-5.771636 0-1.892848 0.961939-3.816727 1.923879-5.740607s1.923879-2.854788 2.885818-4.778666 1.954909-2.885818 3.878788-4.809697l3.847757-3.816727c1.923879-0.930909 2.885818-1.923879 4.809697-2.885819 1.954909-0.930909 3.878788-0.930909 5.802667-1.892848a23.645091 23.645091 0 0 1 11.574303 0c1.923879 0 3.847758 0.930909 5.771636 1.892848s3.878788 1.923879 4.840728 2.885819c1.923879 0.930909 2.885818 1.923879 3.847757 3.816727 0.961939 0.961939 2.885818 2.885818 3.847758 4.809697s1.923879 2.854788 2.885818 4.778666c0.99297 1.923879 0.99297 3.847758 1.954909 5.740607 0 1.923879 0.930909 3.847758 0.930909 5.771636 0 1.892848 0 3.816727-0.930909 5.740606 0 1.923879-0.961939 3.816727-1.954909 5.740606a20.914424 20.914424 0 0 1-2.885818 4.809697 7.509333 7.509333 0 0 1-3.847758 3.816727c-4.809697 6.702545-12.536242 9.588364-20.262788 9.588364z" fill="#444B54" p-id="4830"></path></svg>